<svg width="488" height="488" viewBox="0 0 488 488" fill="none" xmlns="http://www.w3.org/2000/svg">
    <path d="M0 244C0 21.96 21.96 0 244 0C466.04 0 488 21.96 488 244C488 466.04 466.04 488 244 488C21.96 488 0 466.04 0 244Z"
          fill="url(#paint0_linear_1004_78)"/>
    <path d="M351.694 205.704L286.14 196.182L256.842 136.966C254.258 131.671 249.109 128.999 243.601 129C238.899 129 233.75 131.638 231.153 136.961L201.824 196.178L136.301 205.704C124.538 207.404 119.827 221.85 128.353 230.124L175.772 275.789L164.569 341.267C162.957 350.525 170.39 357.994 178.719 357.994C180.927 357.994 183.201 357.47 185.381 356.317L244.004 325.613L302.618 356.339C304.796 357.481 307.062 358 309.267 358C317.6 358 325.034 350.571 323.439 341.268L312.223 276.193L359.642 230.528C368.172 221.85 363.471 207.404 351.694 205.704ZM289.767 272.39L299.797 330.578L247.318 303.08C245.233 301.988 242.746 301.988 240.659 303.08L188.211 330.578L198.241 272.39C198.644 270.064 197.48 267.694 196.182 266.039L153.777 224.851L212.391 216.335C214.72 215.991 216.735 214.515 217.764 212.413L244.004 159.409L270.239 212.408C271.283 214.518 273.299 215.98 275.63 216.319L334.244 224.835L291.84 266.023C290.125 267.694 289.364 270.064 289.767 272.39Z"
          fill="white"/>
    <defs>
        <linearGradient id="paint0_linear_1004_78" x1="0" y1="0" x2="345.068" y2="345.068"
                        gradientUnits="userSpaceOnUse">
            <stop stop-color="#F60027"/>
            <stop offset="1" stop-color="#F92672"/>
        </linearGradient>
    </defs>
</svg>
